<svg xmlns="http://www.w3.org/2000/svg" xmlns:xlink="http://www.w3.org/1999/xlink" width="32" height="32" viewBox="0 0 32 32">
  <defs>
    <clipPath id="clip-Favicon">
      <rect width="32" height="32"/>
    </clipPath>
  </defs>
  <g id="Favicon" clip-path="url(#clip-Favicon)">
    <rect width="32" height="32" fill="#fff"/>
    <g id="Group_1" data-name="Group 1">
      <path id="Icon_awesome-exchange-alt" data-name="Icon awesome-exchange-alt" d="M0,6.332V5.99a.513.513,0,0,1,.513-.513h7.7V4.45a.514.514,0,0,1,.876-.363L10.8,5.8a.513.513,0,0,1,0,.726L9.089,8.235a.514.514,0,0,1-.876-.363V6.845H.513A.513.513,0,0,1,0,6.332ZM10.437,9.583h-7.7V8.556a.514.514,0,0,0-.876-.363L.15,9.9a.513.513,0,0,0,0,.726l1.711,1.711a.514.514,0,0,0,.876-.363V10.951h7.7a.513.513,0,0,0,.513-.513V10.1A.513.513,0,0,0,10.437,9.583Z" transform="translate(19.22 8.064)" fill="#0d7efd"/>
      <path id="Icon_material-attach-money" data-name="Icon material-attach-money" d="M17.7,18.544c-3.4-1.049-4.5-2.133-4.5-3.822,0-1.938,1.515-3.289,4.05-3.289,2.67,0,3.66,1.511,3.75,3.733h3.315c-.1-3.058-1.68-5.867-4.815-6.773V4.5H15V8.34a6.538,6.538,0,0,0-5.25,6.418c0,4.107,2.865,6.151,7.05,7.342,3.75,1.067,4.5,2.631,4.5,4.284,0,1.227-.735,3.182-4.05,3.182-3.09,0-4.305-1.636-4.47-3.733H9.48A7.008,7.008,0,0,0,15,32.642V36.5h4.5V32.678c2.925-.658,5.25-2.667,5.25-6.311C24.75,21.318,21.1,19.593,17.7,18.544Z" transform="translate(-7.645 -4.5)" fill="#0d7efd"/>
    </g>
  </g>
</svg>
